# xmcd
#
# Track frame offsets: 
#        150
#        11483
#        30307
#        48454
#        63824
#        79131
#        85233
#        94188
#        115938
#        133142
#        148591
#        169098
#
# Disc length: 2517 seconds
#
# Revision: 1
# Processed by: cddbd v1.5.2PL0 Copyright (c) Steve Scherf et al.
# Submitted via: ExactAudioCopy v0.99pb3
#
DISCID=9609d30c
DTITLE=Fraser and Debolt - Fraser and Debolt With Ian Guenther
DYEAR=1971
DGENRE=Country
TTITLE0=All This Paradise
TTITLE1=Gypsy Solitaire
TTITLE2=Them Dance Hall Girls
TTITLE3=David's Tune
TTITLE4=The Waltze Of The Tennis Players
TTITLE5=Armstrong Tourest Rest Home
TTITLE6=Fraser And Debolt Theme
TTITLE7=Old Man On The Corner
TTITLE8=Warmth
TTITLE9=Stoney Day
TTITLE10=Pure Spring Water
TTITLE11=Don't Let Me Down
EXTD=YEAR: 1971
EXTT0=
EXTT1=
EXTT2=
EXTT3=
EXTT4=
EXTT5=
EXTT6=
EXTT7=
EXTT8=
EXTT9=
EXTT10=
EXTT11=
PLAYORDER=
